<svg width="43" height="36" viewBox="0 0 43 36" fill="none" xmlns="http://www.w3.org/2000/svg">
<path d="M18.0175 11.6123V12.1123L18.0775 11.1159L18.0175 11.6123ZM11.2907 20.6206L10.7908 20.6277L11.7907 20.6163L11.2907 20.6206ZM11.1654 11.6871L11.6653 11.6801L10.6732 11.5991L11.1654 11.6871ZM11.2907 11.6871L11.7501 11.4897L11.4917 10.8883L10.9794 11.2958L11.2907 11.6871ZM7.17525 20.6206L7.07906 20.13L7.17525 21.1206V20.6206ZM15.3017 20.6206L15.7145 20.9028L16.2491 20.1206H15.3017V20.6206ZM11.2907 26.4891L10.8779 26.207L10.7655 26.3715L10.797 26.5682L11.2907 26.4891ZM11.2907 34.5256L11.7152 34.7898L11.2907 34.5256ZM21.8614 20.6206L22.2364 20.9514L21.8614 20.6206ZM42.1371 22.5219C42.4027 22.4462 42.5566 22.1695 42.4808 21.9039C42.4051 21.6384 42.1285 21.4845 41.8629 21.5602L42.1371 22.5219ZM5.42044 12.1123H18.0175V11.1123H5.42044V12.1123ZM18.0775 11.1159C16.121 10.8796 11.9665 8.87859 11.7905 2.55275L10.7909 2.58056C10.9826 9.47188 15.5826 11.8218 17.9575 12.1087L18.0775 11.1159ZM11.7905 2.55275C11.7677 1.73184 11.749 1.24211 11.7332 1.04525C11.7311 1.01929 11.7287 0.993051 11.7257 0.969058C11.7246 0.960298 11.7184 0.903606 11.6987 0.844934C11.6932 0.828362 11.6787 0.787022 11.6499 0.739969C11.6353 0.716212 11.5435 0.562636 11.3384 0.513682C11.0691 0.449414 10.8915 0.615132 10.837 0.68056C10.7823 0.746218 10.7583 0.809858 10.7515 0.828312C10.7247 0.900261 10.719 0.971268 10.7188 0.972805C10.7106 1.04854 10.706 1.18837 10.7025 1.35562C10.6877 2.06049 10.6864 3.70824 10.6931 5.82767C10.7065 10.0722 10.7524 16.239 10.7907 20.625L11.7907 20.6163C11.7524 16.2307 11.7064 10.0662 11.693 5.82451C11.6863 3.70081 11.6878 2.0667 11.7023 1.37655C11.7041 1.29092 11.706 1.22188 11.7081 1.16941C11.7091 1.14319 11.7102 1.12232 11.7111 1.10635C11.7116 1.09841 11.712 1.09228 11.7124 1.08773C11.7127 1.08302 11.713 1.08111 11.7129 1.08136C11.7129 1.08157 11.7128 1.08289 11.7125 1.0851C11.7122 1.08721 11.7116 1.09118 11.7107 1.09653C11.7102 1.0993 11.7048 1.13384 11.6887 1.17708C11.6826 1.19358 11.6593 1.25579 11.6054 1.32055C11.5516 1.38509 11.3748 1.55045 11.1062 1.48636C10.9019 1.43759 10.8108 1.28473 10.7971 1.26224C10.769 1.21645 10.7553 1.17691 10.7505 1.16268C10.734 1.11341 10.7311 1.07483 10.7334 1.09315C10.7338 1.09622 10.7348 1.10601 10.7364 1.12525C10.7496 1.29001 10.7678 1.74931 10.7909 2.58056L11.7905 2.55275ZM11.7907 20.6136L11.6653 11.6801L10.6654 11.6941L10.7908 20.6277L11.7907 20.6136ZM10.6732 11.5991C10.4332 12.9408 9.73449 15.0753 8.42519 17.0566C7.11787 19.0348 5.22687 20.8244 2.61113 21.5597L2.88173 22.5224C5.79784 21.7027 7.86562 19.7171 9.25947 17.6079C10.6513 15.5018 11.3961 13.2368 11.6576 11.7751L10.6732 11.5991ZM2.61113 21.5597C2.28104 21.6525 2.01932 21.7061 1.81717 21.7293C1.60933 21.7531 1.49408 21.7411 1.44166 21.7273C1.3996 21.7162 1.45108 21.7203 1.48598 21.7898C1.51292 21.8434 1.48876 21.8575 1.50917 21.7728C1.55271 21.5921 1.72015 21.2786 2.05892 20.8309C2.38563 20.3991 2.83314 19.8914 3.37213 19.331C5.5317 17.0853 9.02943 14.1248 11.602 12.0784L10.9794 11.2958C8.39897 13.3486 4.85863 16.3425 2.65135 18.6378C2.09863 19.2126 1.62138 19.7518 1.26147 20.2275C0.91363 20.6872 0.632592 21.1417 0.536988 21.5386C0.487828 21.7426 0.471433 21.9979 0.592369 22.2386C0.721261 22.4953 0.952969 22.6325 1.18627 22.6941C1.40922 22.753 1.66446 22.7534 1.93113 22.7228C2.2035 22.6915 2.52034 22.624 2.88173 22.5224L2.61113 21.5597ZM10.8313 11.8845C11.9132 14.403 13.6953 17.9664 15.5248 20.4413C16.4294 21.6649 17.3959 22.6935 18.3443 23.1543C18.8308 23.3906 19.3549 23.498 19.8752 23.3575C20.3975 23.2164 20.8286 22.8491 21.1746 22.3117L20.3338 21.7704C20.0781 22.1674 19.8295 22.334 19.6145 22.3921C19.3975 22.4507 19.1268 22.4226 18.7813 22.2548C18.066 21.9072 17.2205 21.0528 16.3289 19.8468C14.5663 17.4625 12.8199 13.98 11.7501 11.4897L10.8313 11.8845ZM21.1746 22.3117C21.5094 21.7917 21.6821 21.2655 21.5781 20.7614C21.4713 20.2435 21.1025 19.8871 20.6628 19.6497C19.815 19.1922 18.4472 19.0343 16.9445 19.0227C13.8901 18.9989 9.85527 19.5857 7.07906 20.13L7.27145 21.1113C10.0243 20.5716 13.9822 19.9997 16.9367 20.0226C18.4384 20.0343 19.5791 20.2012 20.1878 20.5298C20.4763 20.6855 20.5728 20.8375 20.5988 20.9634C20.6276 21.103 20.6007 21.3559 20.3338 21.7704L21.1746 22.3117ZM7.17525 21.1206H15.3017V20.1206H7.17525V21.1206ZM14.8889 20.3385L10.8779 26.207L11.7035 26.7713L15.7145 20.9028L14.8889 20.3385ZM10.797 26.5682C10.9653 27.6191 11.1674 29.2786 11.2261 30.8318C11.2555 31.609 11.2485 32.3476 11.1867 32.9645C11.1228 33.6014 11.0065 34.036 10.8662 34.2614L11.7152 34.7898C11.9844 34.3573 12.1155 33.7247 12.1817 33.0643C12.2499 32.384 12.2557 31.5951 12.2254 30.794C12.1647 29.1906 11.9573 27.4898 11.7844 26.4101L10.797 26.5682ZM10.8662 34.2614C10.7717 34.4133 10.5213 34.5655 9.90524 34.4722C9.31109 34.3821 8.53208 34.0759 7.66666 33.559C5.94182 32.5288 3.99786 30.7364 2.6747 28.5135L1.81541 29.025C3.22893 31.3997 5.29597 33.3078 7.15388 34.4175C8.07984 34.9706 8.98514 35.3442 9.75542 35.4609C10.5037 35.5743 11.2979 35.4602 11.7152 34.7898L10.8662 34.2614ZM2.6747 28.5135C2.39306 28.0403 2.42572 27.7511 2.5378 27.5508C2.67538 27.305 3.01475 27.0397 3.6418 26.8104C4.88147 26.3571 6.89002 26.1717 9.21015 26.2413C11.5143 26.3105 14.0673 26.6289 16.3631 27.144C18.6715 27.662 20.6692 28.3677 21.8977 29.1855L22.4518 28.353C21.069 27.4326 18.9278 26.6946 16.582 26.1683C14.2238 25.6392 11.6076 25.3128 9.24014 25.2418C6.8886 25.1712 4.72294 25.3503 3.29839 25.8712C2.59334 26.129 1.9781 26.5032 1.66514 27.0625C1.32669 27.6673 1.41288 28.3487 1.81541 29.025L2.6747 28.5135ZM21.8977 29.1855C22.7543 29.7556 23.7109 29.644 24.6158 29.1568C25.5047 28.6782 26.4122 27.8088 27.3003 26.7142C29.0835 24.5163 30.9066 21.2605 32.4511 17.8654C33.9974 14.4663 35.2806 10.8919 35.9716 8.0401C36.3163 6.61784 36.5199 5.35033 36.5262 4.36416C36.5293 3.87221 36.4838 3.42315 36.366 3.05031C36.2485 2.67857 36.0412 2.32952 35.6841 2.13011L35.1966 3.0032C35.2494 3.03272 35.338 3.11587 35.4125 3.35158C35.4866 3.58618 35.529 3.91981 35.5262 4.3578C35.5207 5.23153 35.337 6.41292 34.9998 7.80459C34.3271 10.5806 33.0681 14.0942 31.5409 17.4513C30.0118 20.8125 28.23 23.9812 26.5238 26.0842C25.6672 27.14 24.8589 27.8902 24.1417 28.2763C23.4406 28.6538 22.9008 28.6519 22.4518 28.353L21.8977 29.1855ZM35.6841 2.13011C35.2881 1.90895 34.8542 1.97662 34.485 2.13817C34.1154 2.29981 33.7324 2.58583 33.3489 2.94481C32.5775 3.66684 31.7029 4.78101 30.8054 6.1413C29.0056 8.86885 27.0548 12.6757 25.5949 16.5669C24.1394 20.4463 23.1484 24.4705 23.3223 27.6147C23.4094 29.19 23.7916 30.596 24.606 31.6483C25.4337 32.7177 26.6643 33.3656 28.3205 33.4916L28.3963 32.4945C26.9815 32.3869 26.0278 31.8515 25.3968 31.0362C24.7525 30.2038 24.4017 29.0236 24.3208 27.5595C24.1585 24.625 25.0907 20.7576 26.5312 16.9182C27.9672 13.0907 29.8851 9.35173 31.64 6.69205C32.5198 5.35873 33.3441 4.31894 34.0322 3.67489C34.3784 3.35082 34.6653 3.15078 34.8857 3.05434C35.1064 2.95781 35.1826 2.99541 35.1966 3.0032L35.6841 2.13011ZM28.3205 33.4916C31.4444 33.7293 33.7424 33.334 35.3969 32.4532C37.0678 31.5637 38.0335 30.2049 38.531 28.6302C39.0234 27.0718 39.0569 25.3067 38.8945 23.5691C38.7318 21.8285 38.3679 20.0754 38.0393 18.5352L37.0613 18.7439C37.3907 20.2875 37.7423 21.9873 37.8989 23.6622C38.0557 25.3401 38.0122 26.9531 37.5775 28.3289C37.148 29.6884 36.3367 30.82 34.9269 31.5705C33.5007 32.3297 31.4142 32.7241 28.3963 32.4945L28.3205 33.4916ZM38.0393 18.5352C37.6961 16.9268 37.0425 15.582 36.0795 14.6435C35.1071 13.6959 33.8468 13.1906 32.3643 13.2291C29.4438 13.3048 25.7283 15.4805 21.4864 20.2899L22.2364 20.9514C26.4343 16.1918 29.9052 14.2932 32.3902 14.2287C33.6104 14.1971 34.6076 14.6053 35.3815 15.3596C36.1648 16.123 36.7465 17.2685 37.0613 18.7439L38.0393 18.5352ZM21.4864 20.2899C20.6246 21.267 20.093 22.1234 19.9115 22.8733C19.8187 23.2566 19.814 23.6267 19.9175 23.9711C20.0218 24.3179 20.2257 24.6048 20.4959 24.8348C21.019 25.2801 21.8 25.5215 22.6851 25.6455C23.5849 25.7716 24.6654 25.7859 25.8544 25.7193C30.6 25.4538 37.3664 23.8821 42.1371 22.5219L41.8629 21.5602C37.1074 22.9161 30.4287 24.4618 25.7985 24.7209C24.6435 24.7855 23.6344 24.7688 22.8239 24.6552C21.9985 24.5395 21.4482 24.3322 21.1441 24.0733C21.0007 23.9513 20.917 23.8222 20.8752 23.6832C20.8327 23.5419 20.8235 23.3564 20.8834 23.1086C21.0074 22.5963 21.4102 21.8881 22.2364 20.9514L21.4864 20.2899Z" fill="black"/>
</svg>
